<?xml version="1.0" ?>
<svg width="800px" height="800px" viewBox="0 0 64 64" id="Layer_1" version="1.1" xml:space="preserve" xmlns="http://www.w3.org/2000/svg" xmlns:xlink="http://www.w3.org/1999/xlink">
<style type="text/css">
	.st0{fill:#ecebe0;}
	.st1{fill:#9CC97F;}
	.st2{fill:#F9F7F4;}
	.st3{fill:#FFFFFF;}
	.st4{fill:#9CC97F;}
	.st5{fill:#0F423F;}
	.st6{fill:#9CC97F;}
	.st7{fill:#9CC97F;}
	.st8{fill:#0F423F;}
	.st9{fill:#9CC97F;}
	.st10{fill:#1c1d1c;}
	.st11{fill:#0F423F;}
	.st12{fill:#9CC97F;}
	.st13{fill:#9CC97F;}
	.st14{fill:#0F423F;}
</style>
<g>
<path class="st6" d="M54.93,49.79L43.6,38.45l-0.92,0.92L39.3,36L36,39.3l3.38,3.38l-0.92,0.92l11.34,11.34   c1.42,1.42,3.72,1.42,5.14,0C56.36,53.51,56.36,51.21,54.93,49.79z"/>
<circle class="st2" cx="26.22" cy="26.22" r="18.22"/>
<circle class="st9" cx="26.22" cy="26.22" r="14.58"/>
<g>
<circle class="st3" cx="26.22" cy="22.75" r="5.1"/>
<path class="st10" d="M34.24,33.42c-0.02-2.83-2.89-4.79-5.58-3.94c-0.77,0.24-1.59,0.38-2.44,0.38c-0.85,0-1.67-0.13-2.44-0.38    c-2.7-0.85-5.56,1.11-5.58,3.94c0,0.02,0,0.05,0,0.07v4.89c2.3,1.52,5.06,2.42,8.02,2.42s5.72-0.89,8.02-2.42v-4.89    C34.24,33.47,34.24,33.44,34.24,33.42z"/>
</g>
<path class="st0" d="M26.22,40.8c-8.04,0-14.58-6.54-14.58-14.58v10.9c3.32,4.44,8.61,7.32,14.58,7.32   c5.97,0,11.25-2.88,14.58-7.32v-10.9C40.8,34.26,34.26,40.8,26.22,40.8z"/>
</g>
</svg>
